<svg aria-hidden="False" viewBox="0 0 48 48" xmlns="http://www.w3.org/2000/svg"><path d="M38 8H10a2 2 0 0 0-2 2v28a2 2 0 0 0 2 2h28a2 2 0 0 0 2-2V10a2 2 0 0 0-2-2Z" data-follow-stroke="currentColor" fill="none" stroke="currentColor" stroke-linejoin="round" stroke-width="4"/><path d="M30 18H18v12h12V18Z" data-follow-stroke="currentColor" fill="none" stroke="currentColor" stroke-linejoin="round" stroke-width="4"/><path clip-rule="evenodd" d="M14.91 2v6-6Z" fill="none"/><path d="M14.91 2v6" data-follow-stroke="currentColor" fill="none" stroke="currentColor" stroke-linecap="round" stroke-linejoin="round" stroke-width="4"/><path clip-rule="evenodd" d="M14.91 40v6-6Z" fill="none"/><path d="M14.91 40v6" data-follow-stroke="currentColor" fill="none" stroke="currentColor" stroke-linecap="round" stroke-linejoin="round" stroke-width="4"/><path clip-rule="evenodd" d="M24 2v6-6Z" fill="none"/><path d="M24 2v6" data-follow-stroke="currentColor" fill="none" stroke="currentColor" stroke-linecap="round" stroke-linejoin="round" stroke-width="4"/><path clip-rule="evenodd" d="M24 40v6-6Z" fill="none"/><path d="M24 40v6" data-follow-stroke="currentColor" fill="none" stroke="currentColor" stroke-linecap="round" stroke-linejoin="round" stroke-width="4"/><path clip-rule="evenodd" d="M33.09 2v6-6Z" fill="none"/><path d="M33.09 2v6" data-follow-stroke="currentColor" fill="none" stroke="currentColor" stroke-linecap="round" stroke-linejoin="round" stroke-width="4"/><path clip-rule="evenodd" d="M33.09 40v6-6Z" fill="none"/><path d="M33.09 40v6" data-follow-stroke="currentColor" fill="none" stroke="currentColor" stroke-linecap="round" stroke-linejoin="round" stroke-width="4"/><path clip-rule="evenodd" d="M2 14.91h6-6Z" fill="none"/><path d="M2 14.91h6" data-follow-stroke="currentColor" fill="none" stroke="currentColor" stroke-linecap="round" stroke-linejoin="round" stroke-width="4"/><path clip-rule="evenodd" d="M40 14.91h6-6Z" fill="none"/><path d="M40 14.91h6" data-follow-stroke="currentColor" fill="none" stroke="currentColor" stroke-linecap="round" stroke-linejoin="round" stroke-width="4"/><path clip-rule="evenodd" d="M2 24h6-6Z" fill="none"/><path d="M2 24h6" data-follow-stroke="currentColor" fill="none" stroke="currentColor" stroke-linecap="round" stroke-linejoin="round" stroke-width="4"/><path clip-rule="evenodd" d="M40 24h6-6Z" fill="none"/><path d="M40 24h6" data-follow-stroke="currentColor" fill="none" stroke="currentColor" stroke-linecap="round" stroke-linejoin="round" stroke-width="4"/><path clip-rule="evenodd" d="M2 33.09h6-6Z" fill="none"/><path d="M2 33.09h6" data-follow-stroke="currentColor" fill="none" stroke="currentColor" stroke-linecap="round" stroke-linejoin="round" stroke-width="4"/><path clip-rule="evenodd" d="M40 33.09h6-6Z" fill="none"/><path d="M40 33.09h6" data-follow-stroke="currentColor" fill="none" stroke="currentColor" stroke-linecap="round" stroke-linejoin="round" stroke-width="4"/></svg>